<svg width="201" height="37" viewBox="0 0 201 37" fill="none" xmlns="http://www.w3.org/2000/svg">
<path d="M18.4697 7.86148C20.3377 7.8643 22.1721 8.35866 23.7885 9.29492C25.4049 10.2312 26.7464 11.5763 27.6783 13.1953L33.3517 7.52065C31.0929 4.45617 27.9433 2.16348 24.333 0.955567C20.7227 -0.252348 16.8275 -0.316628 13.1793 0.771504C9.53111 1.85964 6.30761 4.04715 3.94887 7.03543C1.59012 10.0237 0.211079 13.6671 0 17.4683H7.88229C8.1397 14.8384 9.36614 12.3984 11.323 10.6227C13.2799 8.84711 15.8273 7.86287 18.4697 7.86148Z" fill="#F6B215"/>
<path d="M64.5607 25.383C64.575 25.322 64.5894 25.2634 64.6025 25.1988C64.6408 25.029 64.6767 24.858 64.709 24.6858C64.709 24.6571 64.7209 24.6284 64.7257 24.5997C64.8916 23.7015 64.9753 22.79 64.9757 21.8766C64.9757 21.6553 64.9685 21.4353 64.9589 21.2176C64.9589 21.1243 64.9494 21.0323 64.9434 20.9402C64.9374 20.8481 64.9278 20.7225 64.9183 20.6137C64.8951 20.3362 64.8652 20.0604 64.8286 19.7861C64.828 19.7842 64.828 19.7821 64.8286 19.7801C64.4322 16.9403 63.2362 14.2719 61.3801 12.0864C59.5241 9.90085 57.0846 8.28843 54.3465 7.43739C51.6084 6.58634 48.6847 6.53178 45.9167 7.28009C43.1488 8.02839 40.6508 9.54868 38.7145 11.6634L38.6918 11.6886C38.6093 11.7783 38.5304 11.8715 38.4526 11.9648L26.7554 25.3507C23.8708 28.5474 21.1585 29.2315 18.4713 29.1286C12.9581 28.9193 8.40642 24.9058 7.88739 19.523H0.00390625C0.198831 23.0638 1.4079 26.4738 3.48697 29.3465C5.56603 32.2193 8.42738 34.4335 11.7299 35.7253C15.0324 37.017 18.6367 37.3318 22.1131 36.6321C25.5895 35.9323 28.7914 34.2476 31.3369 31.7788L31.3501 31.7656L31.3884 31.7297L32.7948 30.1906L35.3959 27.3431H35.3899L44.4406 17.4302L44.6798 17.1647L44.919 16.9028C45.7739 16.0538 46.8331 15.4394 47.9946 15.1188C49.156 14.7983 50.3804 14.7823 51.5498 15.0726C52.7191 15.3628 53.794 15.9494 54.6707 16.7759C55.5475 17.6023 56.1965 18.6407 56.5552 19.7909C56.5624 19.8112 56.5672 19.8328 56.5732 19.8531C56.627 20.0313 56.6724 20.2119 56.7131 20.396C56.7262 20.4606 56.7382 20.5264 56.7502 20.5922C56.7789 20.7417 56.8016 20.8935 56.8207 21.0454C56.8279 21.11 56.8363 21.1746 56.8422 21.2392C56.8614 21.452 56.8745 21.6661 56.8745 21.8849C56.8746 22.6092 56.7617 23.3291 56.5397 24.0185C56.5122 24.1058 56.4799 24.1907 56.4488 24.2768C56.4177 24.3629 56.3854 24.455 56.3495 24.5423C56.3137 24.6296 56.2814 24.6954 56.2479 24.7707C56.2144 24.846 56.1642 24.9561 56.1187 25.0458C56.084 25.1127 56.047 25.1773 56.0111 25.2431C55.9585 25.3388 55.907 25.4344 55.8508 25.5265C55.8161 25.5839 55.7779 25.6389 55.7408 25.6951C55.6786 25.7908 55.6212 25.8877 55.5495 25.981C54.6937 27.1722 53.4859 28.0652 52.0961 28.5341C50.7063 29.0031 49.2045 29.0245 47.8019 28.5953C46.3993 28.1661 45.1666 27.3079 44.2772 26.1415C43.3879 24.9751 42.8866 23.5592 42.844 22.093L36.5404 29.0377C37.9651 31.6896 40.1492 33.8558 42.8128 35.2584C45.4764 36.6611 48.4982 37.2365 51.491 36.9108C54.4837 36.5851 57.311 35.3732 59.6105 33.4304C61.9101 31.4876 63.5771 28.9024 64.398 26.0061C64.398 26.0061 64.398 26.0061 64.398 25.9989C64.4112 25.9511 64.4232 25.902 64.4363 25.853C64.4842 25.6916 64.5236 25.5385 64.5607 25.383Z" fill="#0C2637"/>
<path d="M68.0586 21.2188C68.0586 11.661 73.7021 6.76733 82.1082 6.76733C90.5143 6.76733 96.1567 11.6036 96.1567 21.2188V36.9905H87.5197V21.2188C87.5197 16.7281 85.3324 14.8278 82.1082 14.8278C78.884 14.8278 76.6955 16.7281 76.6955 21.2188V36.9905H68.0586V21.2188Z" fill="#0C2637"/>
<path d="M97.5723 6.76733H106.842L113.118 28.0295L119.393 6.76733H128.433L118.242 36.9905H107.763L97.5723 6.76733Z" fill="#0C2637"/>
<path d="M131.517 6.76147H140.154V36.9907H131.517V6.76147Z" fill="#0C2637"/>
<path d="M143.238 27.5165H151.84C151.899 29.0281 153.002 29.7887 155.386 29.7887C158.059 29.7887 158.932 28.8583 158.932 27.6361C158.932 25.7226 156.839 25.5444 154.165 25.1378C150.218 24.5566 143.703 23.5675 143.703 16.6468C143.703 10.8346 148.295 6.76611 155.443 6.76611C162.591 6.76611 167.01 10.892 167.185 16.0656H158.694C158.462 14.7285 157.299 13.9727 155.556 13.9727C153.403 13.9727 152.532 15.0777 152.532 16.245C152.532 17.9886 154.625 18.2206 157.299 18.6272C161.425 19.2084 167.761 20.3135 167.761 27.1182C167.761 33.0464 162.878 36.9989 155.497 36.9989C148.116 36.9989 143.357 33.038 143.238 27.5165Z" fill="#0C2637"/>
<path d="M185.919 14.9082C187.304 14.9082 188.658 15.3189 189.81 16.0884C190.961 16.8578 191.859 17.9515 192.389 19.231C192.919 20.5105 193.057 21.9185 192.787 23.2768C192.517 24.6351 191.85 25.8828 190.87 26.862C189.891 27.8412 188.643 28.508 187.285 28.778C185.926 29.0481 184.518 28.9092 183.239 28.3791C181.96 27.8489 180.866 26.9513 180.097 25.7996C179.328 24.648 178.917 23.2941 178.917 21.9091C178.92 20.0527 179.658 18.273 180.971 16.9603C182.283 15.6477 184.063 14.9092 185.919 14.907V14.9082ZM185.919 6.82861C182.937 6.82861 180.021 7.71307 177.541 9.37014C175.061 11.0272 173.128 13.3825 171.987 16.1381C170.845 18.8937 170.547 21.9259 171.129 24.8512C171.711 27.7765 173.147 30.4636 175.256 32.5727C177.365 34.6817 180.052 36.118 182.977 36.6999C185.903 37.2818 188.935 36.9831 191.69 35.8417C194.446 34.7003 196.801 32.7674 198.458 30.2874C200.115 27.8074 201 24.8918 201 21.9091C201 17.9095 199.411 14.0737 196.583 11.2456C193.755 8.41745 189.919 6.82861 185.919 6.82861Z" fill="#0C2637"/>
</svg>